# xmcd
#
# Track frame offsets:
#	150
#	1946
#	60043
#	105764
#	146676
#	188021
#	232912
#	276843
#
# Disc length: 4364 seconds
#
# Revision: 1
# Processed by: cddbd v1.5.2PL0 Copyright (c) Steve Scherf et al.
# Submitted via: audiograbber 1.83.01
#
DISCID=54110a08
DTITLE=Christian Peitz - Die Märchenprinzessin 
DYEAR=2010
DGENRE=Hörbuch
TTITLE0=Intro - 00:23
TTITLE1=1) Lilly - Der Prinz im Turm - 12:54
TTITLE2=1) Lilly - Das Zauberkarussell - 10:09
TTITLE3=1) Lilly - Die Hochzeitsnacht - 09:05
TTITLE4=1) Lilly - Prinz Ohneschloss - 09:11
TTITLE5=1) Lilly - Die 3 Musketierinnen - 09:58
TTITLE6=1) Lilly - Prinz Nase - 09:45
TTITLE7=1) Lilly - Das Nebelgeheimnis - 11:13
EXTD=Für Kinder und Große
EXTT0=
EXTT1=
EXTT2=
EXTT3=
EXTT4=
EXTT5=
EXTT6=
EXTT7=
PLAYORDER=
